<svg id="visual" viewBox="0 0 900 600" width="900" height="600" xmlns="http://www.w3.org/2000/svg" xmlns:xlink="http://www.w3.org/1999/xlink" version="1.1">
<path d="M0 49L82 67L164 49L245 79L327 103L409 91L491 127L573 49L655 55L736 109L818 55L900 67L900 0L818 0L736 0L655 0L573 0L491 0L409 0L327 0L245 0L164 0L82 0L0 0Z" fill="#f7f5f2"></path>
<path d="M0 127L82 217L164 139L245 199L327 259L409 205L491 247L573 175L655 253L736 211L818 169L900 199L900 65L818 53L736 107L655 53L573 47L491 125L409 89L327 101L245 77L164 47L82 65L0 47Z" fill="#dda15e"></path>
<path d="M0 421L82 493L164 331L245 331L327 355L409 331L491 343L573 301L655 499L736 433L818 487L900 499L900 197L818 167L736 209L655 251L573 173L491 245L409 203L327 257L245 197L164 137L82 215L0 125Z" fill="#dda15e"></path>
<path d="M0 601L82 601L164 601L245 601L327 601L409 601L491 601L573 601L655 601L736 601L818 601L900 601L900 497L818 485L736 431L655 497L573 299L491 341L409 329L327 353L245 329L164 329L82 491L0 419Z" fill="#f7f5f2"></path></svg>